<mxfile host="app.diagrams.net" modified="2022-03-21T19:04:50.908Z" agent="5.0 (X11; Linux x86_64) AppleWebKit/537.36 (KHTML, like Gecko) Chrome/99.0.4844.83 Safari/537.36" etag="QCCgmHDZLb0Z_gDwHFWu" version="17.1.3" type="github">
  <diagram id="Cc6mNrxVDYVhLV706rjN" name="Page-1">
    <mxGraphModel dx="782" dy="625" grid="1" gridSize="10" guides="1" tooltips="1" connect="1" arrows="1" fold="1" page="1" pageScale="1" pageWidth="827" pageHeight="1169" math="0" shadow="0">
      <root>
        <mxCell id="0" />
        <mxCell id="1" parent="0" />
        <mxCell id="8QP3yCqJlQul3fB2jxtT-12" value="" style="edgeStyle=orthogonalEdgeStyle;rounded=0;orthogonalLoop=1;jettySize=auto;html=1;fontFamily=Helvetica;fontSize=12;fontColor=default;" parent="1" target="8QP3yCqJlQul3fB2jxtT-11" edge="1">
          <mxGeometry relative="1" as="geometry">
            <mxPoint x="380" y="90" as="sourcePoint" />
          </mxGeometry>
        </mxCell>
        <mxCell id="8QP3yCqJlQul3fB2jxtT-16" style="edgeStyle=orthogonalEdgeStyle;rounded=0;orthogonalLoop=1;jettySize=auto;html=1;exitX=0.5;exitY=1;exitDx=0;exitDy=0;fontFamily=Helvetica;fontSize=12;fontColor=default;" parent="1" source="8QP3yCqJlQul3fB2jxtT-11" target="8QP3yCqJlQul3fB2jxtT-14" edge="1">
          <mxGeometry relative="1" as="geometry" />
        </mxCell>
        <mxCell id="8QP3yCqJlQul3fB2jxtT-11" value="&lt;span style=&quot;&quot;&gt;Read name from input and&lt;/span&gt;&lt;br style=&quot;&quot;&gt;&lt;span style=&quot;&quot;&gt;print(&#39;Enter your name: &amp;gt; {name}&#39;)&lt;/span&gt;&lt;br style=&quot;&quot;&gt;&lt;span style=&quot;&quot;&gt;on same line&lt;/span&gt;&lt;br&gt;" style="shape=parallelogram;html=1;strokeWidth=2;perimeter=parallelogramPerimeter;whiteSpace=wrap;rounded=1;arcSize=12;size=0.23;labelBackgroundColor=none;labelBorderColor=none;comic=0;fontFamily=Helvetica;fontSize=12;fillColor=#dae8fc;strokeColor=#6c8ebf;fontStyle=1" parent="1" vertex="1">
          <mxGeometry x="235" y="140" width="290" height="90" as="geometry" />
        </mxCell>
        <mxCell id="8QP3yCqJlQul3fB2jxtT-14" value="&lt;span data-lucid-type=&quot;application/vnd.lucid.text&quot; data-lucid-content=&quot;{&amp;#34;t&amp;#34;:&amp;#34;set input to name var&amp;#34;,&amp;#34;m&amp;#34;:[{&amp;#34;s&amp;#34;:0,&amp;#34;n&amp;#34;:&amp;#34;a&amp;#34;,&amp;#34;v&amp;#34;:&amp;#34;center&amp;#34;},{&amp;#34;s&amp;#34;:0,&amp;#34;n&amp;#34;:&amp;#34;f&amp;#34;,&amp;#34;v&amp;#34;:&amp;#34;Orbitron&amp;#34;,&amp;#34;e&amp;#34;:21},{&amp;#34;s&amp;#34;:0,&amp;#34;n&amp;#34;:&amp;#34;fc&amp;#34;,&amp;#34;v&amp;#34;:&amp;#34;Bold&amp;#34;,&amp;#34;e&amp;#34;:21},{&amp;#34;s&amp;#34;:0,&amp;#34;n&amp;#34;:&amp;#34;fid&amp;#34;,&amp;#34;v&amp;#34;:1706,&amp;#34;e&amp;#34;:21},{&amp;#34;s&amp;#34;:0,&amp;#34;n&amp;#34;:&amp;#34;b&amp;#34;,&amp;#34;v&amp;#34;:true,&amp;#34;e&amp;#34;:21},{&amp;#34;s&amp;#34;:0,&amp;#34;n&amp;#34;:&amp;#34;s&amp;#34;,&amp;#34;v&amp;#34;:22.222222222222218,&amp;#34;e&amp;#34;:21},{&amp;#34;s&amp;#34;:0,&amp;#34;n&amp;#34;:&amp;#34;c&amp;#34;,&amp;#34;v&amp;#34;:&amp;#34;3a414aff&amp;#34;,&amp;#34;e&amp;#34;:21}]}&quot;&gt;&lt;span style=&quot;font-weight: bold ; font-size: 16.6667px ; color: rgb(58 , 65 , 74)&quot;&gt;set input to name var&lt;/span&gt;&lt;/span&gt;" style="rounded=1;whiteSpace=wrap;html=1;absoluteArcSize=1;arcSize=14;strokeWidth=2;labelBackgroundColor=none;labelBorderColor=none;comic=0;fontFamily=Helvetica;fontSize=12;fillColor=#dae8fc;strokeColor=#6c8ebf;" parent="1" vertex="1">
          <mxGeometry x="290" y="270" width="180" height="50" as="geometry" />
        </mxCell>
        <mxCell id="8QP3yCqJlQul3fB2jxtT-17" value="&lt;span data-lucid-type=&quot;application/vnd.lucid.text&quot; data-lucid-content=&quot;{&amp;#34;t&amp;#34;:&amp;#34;print(&#39;Hello {name}&#39;)&amp;#34;,&amp;#34;m&amp;#34;:[{&amp;#34;s&amp;#34;:0,&amp;#34;n&amp;#34;:&amp;#34;a&amp;#34;,&amp;#34;v&amp;#34;:&amp;#34;center&amp;#34;},{&amp;#34;s&amp;#34;:0,&amp;#34;n&amp;#34;:&amp;#34;f&amp;#34;,&amp;#34;v&amp;#34;:&amp;#34;Orbitron&amp;#34;,&amp;#34;e&amp;#34;:21},{&amp;#34;s&amp;#34;:0,&amp;#34;n&amp;#34;:&amp;#34;fc&amp;#34;,&amp;#34;v&amp;#34;:&amp;#34;Bold&amp;#34;,&amp;#34;e&amp;#34;:21},{&amp;#34;s&amp;#34;:0,&amp;#34;n&amp;#34;:&amp;#34;fid&amp;#34;,&amp;#34;v&amp;#34;:1706,&amp;#34;e&amp;#34;:21},{&amp;#34;s&amp;#34;:0,&amp;#34;n&amp;#34;:&amp;#34;b&amp;#34;,&amp;#34;v&amp;#34;:true,&amp;#34;e&amp;#34;:21},{&amp;#34;s&amp;#34;:0,&amp;#34;n&amp;#34;:&amp;#34;s&amp;#34;,&amp;#34;v&amp;#34;:22.222222222222218,&amp;#34;e&amp;#34;:21},{&amp;#34;s&amp;#34;:0,&amp;#34;n&amp;#34;:&amp;#34;c&amp;#34;,&amp;#34;v&amp;#34;:&amp;#34;3a414aff&amp;#34;,&amp;#34;e&amp;#34;:21}]}&quot;&gt;&lt;span style=&quot;font-weight: bold ; font-size: 16.6667px ; color: rgb(58 , 65 , 74)&quot;&gt;print(&#39;Hello {name}&#39;)&lt;/span&gt;&lt;/span&gt;" style="shape=parallelogram;html=1;strokeWidth=2;perimeter=parallelogramPerimeter;whiteSpace=wrap;rounded=1;arcSize=12;size=0.23;labelBackgroundColor=none;labelBorderColor=none;comic=0;fontFamily=Helvetica;fontSize=12;fillColor=#dae8fc;strokeColor=#6c8ebf;" parent="1" vertex="1">
          <mxGeometry x="250" y="360" width="240" height="50" as="geometry" />
        </mxCell>
        <mxCell id="8QP3yCqJlQul3fB2jxtT-22" value="&lt;span data-lucid-type=&quot;application/vnd.lucid.text&quot; data-lucid-content=&quot;{&amp;#34;t&amp;#34;:&amp;#34;def check_file()&amp;#34;,&amp;#34;m&amp;#34;:[{&amp;#34;s&amp;#34;:0,&amp;#34;n&amp;#34;:&amp;#34;a&amp;#34;,&amp;#34;v&amp;#34;:&amp;#34;center&amp;#34;},{&amp;#34;s&amp;#34;:0,&amp;#34;n&amp;#34;:&amp;#34;b&amp;#34;,&amp;#34;v&amp;#34;:true,&amp;#34;e&amp;#34;:16},{&amp;#34;s&amp;#34;:0,&amp;#34;n&amp;#34;:&amp;#34;c&amp;#34;,&amp;#34;v&amp;#34;:&amp;#34;3a414aff&amp;#34;,&amp;#34;e&amp;#34;:16},{&amp;#34;s&amp;#34;:0,&amp;#34;n&amp;#34;:&amp;#34;f&amp;#34;,&amp;#34;v&amp;#34;:&amp;#34;Orbitron&amp;#34;,&amp;#34;e&amp;#34;:16},{&amp;#34;s&amp;#34;:0,&amp;#34;n&amp;#34;:&amp;#34;fc&amp;#34;,&amp;#34;v&amp;#34;:&amp;#34;Bold&amp;#34;,&amp;#34;e&amp;#34;:16},{&amp;#34;s&amp;#34;:0,&amp;#34;n&amp;#34;:&amp;#34;fid&amp;#34;,&amp;#34;v&amp;#34;:1706,&amp;#34;e&amp;#34;:16},{&amp;#34;s&amp;#34;:0,&amp;#34;n&amp;#34;:&amp;#34;s&amp;#34;,&amp;#34;v&amp;#34;:22.222222222222218,&amp;#34;e&amp;#34;:16}]}&quot;&gt;&lt;span style=&quot;font-weight: bold ; color: rgb(58 , 65 , 74) ; font-size: 16.6667px&quot;&gt;def check_file()&lt;/span&gt;&lt;/span&gt;" style="verticalLabelPosition=middle;verticalAlign=middle;shape=process;rounded=1;size=0.14;arcSize=6;labelBackgroundColor=none;labelBorderColor=none;comic=0;fontFamily=Helvetica;fontSize=12;horizontal=1;align=center;html=1;whiteSpace=wrap;labelPosition=center;fillColor=#e1d5e7;strokeColor=#9673a6;" parent="1" vertex="1">
          <mxGeometry x="280" y="470" width="180" height="90" as="geometry" />
        </mxCell>
        <mxCell id="8QP3yCqJlQul3fB2jxtT-23" value="&lt;span data-lucid-type=&quot;application/vnd.lucid.text&quot; data-lucid-content=&quot;{&amp;#34;t&amp;#34;:&amp;#34;Read input&amp;#34;,&amp;#34;m&amp;#34;:[{&amp;#34;s&amp;#34;:0,&amp;#34;n&amp;#34;:&amp;#34;a&amp;#34;,&amp;#34;v&amp;#34;:&amp;#34;center&amp;#34;},{&amp;#34;s&amp;#34;:0,&amp;#34;n&amp;#34;:&amp;#34;b&amp;#34;,&amp;#34;v&amp;#34;:true,&amp;#34;e&amp;#34;:10},{&amp;#34;s&amp;#34;:0,&amp;#34;n&amp;#34;:&amp;#34;c&amp;#34;,&amp;#34;v&amp;#34;:&amp;#34;3a414aff&amp;#34;,&amp;#34;e&amp;#34;:10},{&amp;#34;s&amp;#34;:0,&amp;#34;n&amp;#34;:&amp;#34;f&amp;#34;,&amp;#34;v&amp;#34;:&amp;#34;Orbitron&amp;#34;,&amp;#34;e&amp;#34;:10},{&amp;#34;s&amp;#34;:0,&amp;#34;n&amp;#34;:&amp;#34;fc&amp;#34;,&amp;#34;v&amp;#34;:&amp;#34;Bold&amp;#34;,&amp;#34;e&amp;#34;:10},{&amp;#34;s&amp;#34;:0,&amp;#34;n&amp;#34;:&amp;#34;fid&amp;#34;,&amp;#34;v&amp;#34;:1706,&amp;#34;e&amp;#34;:10},{&amp;#34;s&amp;#34;:0,&amp;#34;n&amp;#34;:&amp;#34;s&amp;#34;,&amp;#34;v&amp;#34;:22.222222222222218,&amp;#34;e&amp;#34;:10}]}&quot;&gt;&lt;span style=&quot;font-weight: bold ; color: rgb(58 , 65 , 74) ; font-size: 16.6667px&quot;&gt;Read input&lt;/span&gt;&lt;/span&gt;" style="shape=parallelogram;html=1;strokeWidth=2;perimeter=parallelogramPerimeter;whiteSpace=wrap;rounded=1;arcSize=12;size=0.23;labelBackgroundColor=none;labelBorderColor=none;comic=0;fontFamily=Helvetica;fontSize=12;fillColor=#dae8fc;strokeColor=#6c8ebf;" parent="1" vertex="1">
          <mxGeometry x="250" y="720" width="240" height="50" as="geometry" />
        </mxCell>
        <mxCell id="In0JP3tiPYyU7r_qCaVs-1" value="&lt;span data-lucid-type=&quot;application/vnd.lucid.text&quot; data-lucid-content=&quot;{&amp;#34;t&amp;#34;:&amp;#34;set input as user_action var&amp;#34;,&amp;#34;m&amp;#34;:[{&amp;#34;s&amp;#34;:0,&amp;#34;n&amp;#34;:&amp;#34;a&amp;#34;,&amp;#34;v&amp;#34;:&amp;#34;center&amp;#34;},{&amp;#34;s&amp;#34;:0,&amp;#34;n&amp;#34;:&amp;#34;b&amp;#34;,&amp;#34;v&amp;#34;:true,&amp;#34;e&amp;#34;:28},{&amp;#34;s&amp;#34;:0,&amp;#34;n&amp;#34;:&amp;#34;c&amp;#34;,&amp;#34;v&amp;#34;:&amp;#34;3a414aff&amp;#34;,&amp;#34;e&amp;#34;:28},{&amp;#34;s&amp;#34;:0,&amp;#34;n&amp;#34;:&amp;#34;f&amp;#34;,&amp;#34;v&amp;#34;:&amp;#34;Orbitron&amp;#34;,&amp;#34;e&amp;#34;:28},{&amp;#34;s&amp;#34;:0,&amp;#34;n&amp;#34;:&amp;#34;fc&amp;#34;,&amp;#34;v&amp;#34;:&amp;#34;Bold&amp;#34;,&amp;#34;e&amp;#34;:28},{&amp;#34;s&amp;#34;:0,&amp;#34;n&amp;#34;:&amp;#34;fid&amp;#34;,&amp;#34;v&amp;#34;:1706,&amp;#34;e&amp;#34;:28},{&amp;#34;s&amp;#34;:0,&amp;#34;n&amp;#34;:&amp;#34;s&amp;#34;,&amp;#34;v&amp;#34;:22.222222222222218,&amp;#34;e&amp;#34;:28}]}&quot;&gt;&lt;span style=&quot;font-weight: bold ; color: rgb(58 , 65 , 74) ; font-size: 16.6667px&quot;&gt;set input as user_action var&lt;/span&gt;&lt;/span&gt;" style="rounded=1;whiteSpace=wrap;html=1;absoluteArcSize=1;arcSize=14;strokeWidth=2;fillColor=#dae8fc;strokeColor=#6c8ebf;" vertex="1" parent="1">
          <mxGeometry x="280" y="820" width="176" height="60" as="geometry" />
        </mxCell>
        <mxCell id="In0JP3tiPYyU7r_qCaVs-4" value="&lt;span data-lucid-type=&quot;application/vnd.lucid.text&quot; data-lucid-content=&quot;{&amp;#34;t&amp;#34;:&amp;#34;def check_user_action()&amp;#34;,&amp;#34;m&amp;#34;:[{&amp;#34;s&amp;#34;:0,&amp;#34;n&amp;#34;:&amp;#34;a&amp;#34;,&amp;#34;v&amp;#34;:&amp;#34;center&amp;#34;},{&amp;#34;s&amp;#34;:0,&amp;#34;n&amp;#34;:&amp;#34;b&amp;#34;,&amp;#34;v&amp;#34;:true,&amp;#34;e&amp;#34;:23},{&amp;#34;s&amp;#34;:0,&amp;#34;n&amp;#34;:&amp;#34;c&amp;#34;,&amp;#34;v&amp;#34;:&amp;#34;3a414aff&amp;#34;,&amp;#34;e&amp;#34;:23},{&amp;#34;s&amp;#34;:0,&amp;#34;n&amp;#34;:&amp;#34;f&amp;#34;,&amp;#34;v&amp;#34;:&amp;#34;Orbitron&amp;#34;,&amp;#34;e&amp;#34;:23},{&amp;#34;s&amp;#34;:0,&amp;#34;n&amp;#34;:&amp;#34;fc&amp;#34;,&amp;#34;v&amp;#34;:&amp;#34;Bold&amp;#34;,&amp;#34;e&amp;#34;:23},{&amp;#34;s&amp;#34;:0,&amp;#34;n&amp;#34;:&amp;#34;fid&amp;#34;,&amp;#34;v&amp;#34;:1706,&amp;#34;e&amp;#34;:23},{&amp;#34;s&amp;#34;:0,&amp;#34;n&amp;#34;:&amp;#34;s&amp;#34;,&amp;#34;v&amp;#34;:22.222222222222218,&amp;#34;e&amp;#34;:23}]}&quot;&gt;&lt;span style=&quot;font-weight: bold ; color: rgb(58 , 65 , 74) ; font-size: 16.6667px&quot;&gt;def check_user_action()&lt;/span&gt;&lt;/span&gt;" style="verticalLabelPosition=middle;verticalAlign=middle;html=1;shape=process;whiteSpace=wrap;rounded=1;size=0.14;arcSize=6;labelPosition=center;align=center;fillColor=#e1d5e7;strokeColor=#9673a6;" vertex="1" parent="1">
          <mxGeometry x="282" y="930" width="172" height="90" as="geometry" />
        </mxCell>
        <mxCell id="In0JP3tiPYyU7r_qCaVs-5" value="&lt;span data-lucid-type=&quot;application/vnd.lucid.text&quot; data-lucid-content=&quot;{&amp;#34;t&amp;#34;:&amp;#34;crate computer_action var &amp;amp; set random.action to it&amp;#34;,&amp;#34;m&amp;#34;:[{&amp;#34;s&amp;#34;:0,&amp;#34;n&amp;#34;:&amp;#34;a&amp;#34;,&amp;#34;v&amp;#34;:&amp;#34;center&amp;#34;},{&amp;#34;s&amp;#34;:0,&amp;#34;n&amp;#34;:&amp;#34;p&amp;#34;,&amp;#34;v&amp;#34;:1.2},{&amp;#34;s&amp;#34;:0,&amp;#34;n&amp;#34;:&amp;#34;b&amp;#34;,&amp;#34;v&amp;#34;:true,&amp;#34;e&amp;#34;:51},{&amp;#34;s&amp;#34;:0,&amp;#34;n&amp;#34;:&amp;#34;c&amp;#34;,&amp;#34;v&amp;#34;:&amp;#34;3a414aff&amp;#34;,&amp;#34;e&amp;#34;:51},{&amp;#34;s&amp;#34;:0,&amp;#34;n&amp;#34;:&amp;#34;f&amp;#34;,&amp;#34;v&amp;#34;:&amp;#34;Orbitron&amp;#34;,&amp;#34;e&amp;#34;:51},{&amp;#34;s&amp;#34;:0,&amp;#34;n&amp;#34;:&amp;#34;fc&amp;#34;,&amp;#34;v&amp;#34;:&amp;#34;Bold&amp;#34;,&amp;#34;e&amp;#34;:51},{&amp;#34;s&amp;#34;:0,&amp;#34;n&amp;#34;:&amp;#34;fid&amp;#34;,&amp;#34;v&amp;#34;:1706,&amp;#34;e&amp;#34;:51},{&amp;#34;s&amp;#34;:0,&amp;#34;n&amp;#34;:&amp;#34;s&amp;#34;,&amp;#34;v&amp;#34;:22.222222222222218,&amp;#34;e&amp;#34;:51},{&amp;#34;s&amp;#34;:32,&amp;#34;n&amp;#34;:&amp;#34;lk&amp;#34;,&amp;#34;v&amp;#34;:[{&amp;#34;tp&amp;#34;:&amp;#34;ext&amp;#34;,&amp;#34;url&amp;#34;:&amp;#34;http://random.action&amp;#34;}],&amp;#34;e&amp;#34;:45}]}&quot;&gt;&lt;span style=&quot;font-weight: bold ; color: rgb(58 , 65 , 74) ; font-size: 16.6667px&quot;&gt;crate computer_action var &amp;amp; set &lt;/span&gt;&lt;span style=&quot;font-weight: bold ; color: rgb(58 , 65 , 74) ; font-size: 16.6667px&quot;&gt;random.action&lt;/span&gt;&lt;span style=&quot;font-weight: bold ; color: rgb(58 , 65 , 74) ; font-size: 16.6667px&quot;&gt; to it&lt;/span&gt;&lt;/span&gt;" style="rounded=1;whiteSpace=wrap;html=1;absoluteArcSize=1;arcSize=14;strokeWidth=2;fillColor=#dae8fc;strokeColor=#6c8ebf;" vertex="1" parent="1">
          <mxGeometry x="260" y="1070" width="220" height="90" as="geometry" />
        </mxCell>
        <mxCell id="In0JP3tiPYyU7r_qCaVs-6" value="&lt;span data-lucid-type=&quot;application/vnd.lucid.text&quot; data-lucid-content=&quot;{&amp;#34;t&amp;#34;:&amp;#34;def chose_winer()&amp;#34;,&amp;#34;m&amp;#34;:[{&amp;#34;s&amp;#34;:0,&amp;#34;n&amp;#34;:&amp;#34;a&amp;#34;,&amp;#34;v&amp;#34;:&amp;#34;center&amp;#34;},{&amp;#34;s&amp;#34;:0,&amp;#34;n&amp;#34;:&amp;#34;f&amp;#34;,&amp;#34;v&amp;#34;:&amp;#34;Orbitron&amp;#34;,&amp;#34;e&amp;#34;:17},{&amp;#34;s&amp;#34;:0,&amp;#34;n&amp;#34;:&amp;#34;fc&amp;#34;,&amp;#34;v&amp;#34;:&amp;#34;Bold&amp;#34;,&amp;#34;e&amp;#34;:17},{&amp;#34;s&amp;#34;:0,&amp;#34;n&amp;#34;:&amp;#34;fid&amp;#34;,&amp;#34;v&amp;#34;:1706,&amp;#34;e&amp;#34;:17},{&amp;#34;s&amp;#34;:0,&amp;#34;n&amp;#34;:&amp;#34;b&amp;#34;,&amp;#34;v&amp;#34;:true,&amp;#34;e&amp;#34;:17},{&amp;#34;s&amp;#34;:0,&amp;#34;n&amp;#34;:&amp;#34;s&amp;#34;,&amp;#34;v&amp;#34;:22.222222222222218,&amp;#34;e&amp;#34;:17},{&amp;#34;s&amp;#34;:0,&amp;#34;n&amp;#34;:&amp;#34;c&amp;#34;,&amp;#34;v&amp;#34;:&amp;#34;3a414aff&amp;#34;,&amp;#34;e&amp;#34;:17}]}&quot;&gt;&lt;span style=&quot;font-weight: bold ; font-size: 16.6667px ; color: rgb(58 , 65 , 74)&quot;&gt;def chose_winner()&lt;/span&gt;&lt;/span&gt;" style="verticalLabelPosition=middle;verticalAlign=middle;html=1;shape=process;whiteSpace=wrap;rounded=1;size=0.14;arcSize=6;labelPosition=center;align=center;fillColor=#e1d5e7;strokeColor=#9673a6;" vertex="1" parent="1">
          <mxGeometry x="288" y="1200" width="172" height="90" as="geometry" />
        </mxCell>
        <mxCell id="In0JP3tiPYyU7r_qCaVs-8" value="&lt;span data-lucid-type=&quot;application/vnd.lucid.text&quot; data-lucid-content=&quot;{&amp;#34;t&amp;#34;:&amp;#34;STOP&amp;#34;,&amp;#34;m&amp;#34;:[{&amp;#34;s&amp;#34;:0,&amp;#34;n&amp;#34;:&amp;#34;b&amp;#34;,&amp;#34;v&amp;#34;:true,&amp;#34;e&amp;#34;:4},{&amp;#34;s&amp;#34;:0,&amp;#34;n&amp;#34;:&amp;#34;c&amp;#34;,&amp;#34;v&amp;#34;:&amp;#34;3a414aff&amp;#34;,&amp;#34;e&amp;#34;:4},{&amp;#34;s&amp;#34;:0,&amp;#34;n&amp;#34;:&amp;#34;f&amp;#34;,&amp;#34;v&amp;#34;:&amp;#34;Orbitron&amp;#34;,&amp;#34;e&amp;#34;:4},{&amp;#34;s&amp;#34;:0,&amp;#34;n&amp;#34;:&amp;#34;fc&amp;#34;,&amp;#34;v&amp;#34;:&amp;#34;Bold&amp;#34;,&amp;#34;e&amp;#34;:4},{&amp;#34;s&amp;#34;:0,&amp;#34;n&amp;#34;:&amp;#34;fid&amp;#34;,&amp;#34;v&amp;#34;:1706,&amp;#34;e&amp;#34;:4},{&amp;#34;s&amp;#34;:0,&amp;#34;n&amp;#34;:&amp;#34;s&amp;#34;,&amp;#34;v&amp;#34;:22.222222222222218,&amp;#34;e&amp;#34;:4}]}&quot;&gt;&lt;span style=&quot;font-weight: bold ; color: #3a414a ; font-size: 16.666666666666664px&quot;&gt;STOP&lt;/span&gt;&lt;/span&gt;" style="strokeWidth=4;html=1;shape=mxgraph.flowchart.terminator;whiteSpace=wrap;fillColor=#e51400;fontColor=#ffffff;strokeColor=none;gradientColor=none;shadow=1;sketch=0;" vertex="1" parent="1">
          <mxGeometry x="320" y="1370" width="100" height="50" as="geometry" />
        </mxCell>
        <mxCell id="In0JP3tiPYyU7r_qCaVs-9" value="&lt;span data-lucid-type=&quot;application/vnd.lucid.text&quot; data-lucid-content=&quot;{&amp;#34;t&amp;#34;:&amp;#34;STOP&amp;#34;,&amp;#34;m&amp;#34;:[{&amp;#34;s&amp;#34;:0,&amp;#34;n&amp;#34;:&amp;#34;b&amp;#34;,&amp;#34;v&amp;#34;:true,&amp;#34;e&amp;#34;:4},{&amp;#34;s&amp;#34;:0,&amp;#34;n&amp;#34;:&amp;#34;c&amp;#34;,&amp;#34;v&amp;#34;:&amp;#34;3a414aff&amp;#34;,&amp;#34;e&amp;#34;:4},{&amp;#34;s&amp;#34;:0,&amp;#34;n&amp;#34;:&amp;#34;f&amp;#34;,&amp;#34;v&amp;#34;:&amp;#34;Orbitron&amp;#34;,&amp;#34;e&amp;#34;:4},{&amp;#34;s&amp;#34;:0,&amp;#34;n&amp;#34;:&amp;#34;fc&amp;#34;,&amp;#34;v&amp;#34;:&amp;#34;Bold&amp;#34;,&amp;#34;e&amp;#34;:4},{&amp;#34;s&amp;#34;:0,&amp;#34;n&amp;#34;:&amp;#34;fid&amp;#34;,&amp;#34;v&amp;#34;:1706,&amp;#34;e&amp;#34;:4},{&amp;#34;s&amp;#34;:0,&amp;#34;n&amp;#34;:&amp;#34;s&amp;#34;,&amp;#34;v&amp;#34;:22.222222222222218,&amp;#34;e&amp;#34;:4}]}&quot;&gt;&lt;span style=&quot;font-weight: bold ; color: #3a414a ; font-size: 16.666666666666664px&quot;&gt;START&lt;br&gt;&lt;/span&gt;&lt;/span&gt;" style="strokeWidth=4;html=1;shape=mxgraph.flowchart.terminator;whiteSpace=wrap;fillColor=#60a917;fontColor=#ffffff;strokeColor=none;shadow=1;sketch=0;" vertex="1" parent="1">
          <mxGeometry x="330" y="40" width="100" height="50" as="geometry" />
        </mxCell>
      </root>
    </mxGraphModel>
  </diagram>
</mxfile>
